<svg width="50" height="50" viewBox="0 0 50 50" fill="none" xmlns="http://www.w3.org/2000/svg">
<g clip-path="url(#clip0)">
<path d="M25.1139 0C25.1005 0 25.0737 0 25.0335 0C11.4762 0 0.450928 11.0253 0.450928 24.5826C0.450928 30.1153 2.33983 35.4873 5.79613 39.8144L2.21926 48.1336C1.92454 48.8168 2.24606 49.6072 2.91588 49.8885C3.15702 49.9957 3.42495 50.0225 3.67948 49.9823L16.7946 47.6781C19.4204 48.6293 22.18 49.1115 24.9665 49.0981C38.5238 49.0981 49.5491 38.0728 49.5491 24.5156C49.5759 10.9985 38.6309 0.0133965 25.1139 0ZM16.7009 19.6393H23.935C24.6718 19.6393 25.2746 20.2421 25.2746 20.9789C25.2746 21.7157 24.6718 22.3186 23.935 22.3186H16.7009C15.9641 22.3186 15.3612 21.7157 15.3612 20.9789C15.3612 20.2421 15.9641 19.6393 16.7009 19.6393ZM33.3125 29.0168H16.7009C15.9641 29.0168 15.3612 28.414 15.3612 27.6771C15.3612 26.9403 15.9641 26.3375 16.7009 26.3375H33.3125C34.0493 26.3375 34.6522 26.9403 34.6522 27.6771C34.6522 28.414 34.0493 29.0168 33.3125 29.0168Z" fill="url(#paint0_linear)"/>
</g>
<defs>
<linearGradient id="paint0_linear" x1="25" y1="0" x2="25" y2="50" gradientUnits="userSpaceOnUse">
<stop stop-color="#F0681B"/>
<stop offset="0.229167" stop-color="#FA6715"/>
<stop offset="0.421875" stop-color="#E9641A"/>
<stop offset="0.609375" stop-color="#EA721A"/>
<stop offset="0.807292" stop-color="#F09B1B"/>
<stop offset="0.984375" stop-color="#F08E1B"/>
</linearGradient>
<clipPath id="clip0">
<rect width="50" height="50" fill="white"/>
</clipPath>
</defs>
</svg>
