<svg width="20" height="20" viewBox="0 0 20 20" fill="none" xmlns="http://www.w3.org/2000/svg">
<path d="M10 20C4.48578 20 0 15.5142 0 10C0 4.48578 4.48578 0 10 0C15.5142 0 20 4.48578 20 10C20 15.5142 15.5142 20 10 20ZM10 1.25C5.17502 1.25 1.25 5.17502 1.25 10C1.25 14.825 5.17502 18.75 10 18.75C14.825 18.75 18.75 14.825 18.75 10C18.75 5.17502 14.825 1.25 10 1.25Z" fill="black"/>
<path d="M6.90674 13.7183C6.74667 13.7183 6.58661 13.6575 6.465 13.535C6.22086 13.2909 6.22086 12.8951 6.465 12.6509L12.6524 6.46332C12.8967 6.21918 13.2925 6.21918 13.5367 6.46332C13.7808 6.70746 13.7808 7.10327 13.5367 7.34756L7.34909 13.535C7.2258 13.6575 7.06589 13.7183 6.90674 13.7183V13.7183Z" fill="black"/>
<path d="M13.0933 13.7183C12.9333 13.7183 12.7733 13.6575 12.6517 13.535L6.46423 7.34832C6.21993 7.10418 6.21993 6.70837 6.46423 6.46423C6.70837 6.21993 7.10418 6.21993 7.34832 6.46423L13.5358 12.6517C13.7801 12.8958 13.7801 13.2916 13.5358 13.5358C13.4134 13.6575 13.2533 13.7183 13.0933 13.7183V13.7183Z" fill="black"/>
</svg>
